<svg width="181" height="89" viewBox="0 0 181 89" fill="none" xmlns="http://www.w3.org/2000/svg">
<g filter="url(#filter0_d_25_84)">
<path d="M14.7638 20.6852C14.7638 11.4702 22.9285 4 33.0001 4H154.141C164.213 4 172.378 11.4702 172.378 20.6852V60.0145C172.378 69.2294 164.213 76.6996 154.141 76.6996H33.0001C22.9285 76.6996 14.7638 69.2294 14.7638 60.0145V20.6852Z" fill="white"/>
<path d="M18.0011 49.4329C19.5272 48.0366 22.0015 48.0366 23.5275 49.4329L31.8172 57.0174C33.3433 58.4137 33.3433 60.6775 31.8172 62.0738L23.5275 69.6584C22.0015 71.0546 19.5272 71.0546 18.0011 69.6584L9.71146 62.0738C8.18537 60.6775 8.18537 58.4137 9.71146 57.0174L18.0011 49.4329Z" fill="white"/>
</g>
<defs>
<filter id="filter0_d_25_84" x="0.566895" y="0" width="179.811" height="88.6997" filterUnits="userSpaceOnUse" color-interpolation-filters="sRGB">
<feFlood flood-opacity="0" result="BackgroundImageFix"/>
<feColorMatrix in="SourceAlpha" type="matrix" values="0 0 0 0 0 0 0 0 0 0 0 0 0 0 0 0 0 0 127 0" result="hardAlpha"/>
<feOffset dy="4"/>
<feGaussianBlur stdDeviation="4"/>
<feColorMatrix type="matrix" values="0 0 0 0 0 0 0 0 0 0 0 0 0 0 0 0 0 0 0.12 0"/>
<feBlend mode="normal" in2="BackgroundImageFix" result="effect1_dropShadow_25_84"/>
<feBlend mode="normal" in="SourceGraphic" in2="effect1_dropShadow_25_84" result="shape"/>
</filter>
</defs>
</svg>
