<svg width="36" height="36" viewBox="0 0 36 36" fill="none" xmlns="http://www.w3.org/2000/svg">
<path d="M2.25 6.75C2.25 6.15326 2.48705 5.58097 2.90901 5.15901C3.33097 4.73705 3.90326 4.5 4.5 4.5H31.5C32.0967 4.5 32.669 4.73705 33.091 5.15901C33.5129 5.58097 33.75 6.15326 33.75 6.75H2.25ZM18 24.75C19.1935 24.75 20.3381 24.2759 21.182 23.432C22.0259 22.5881 22.5 21.4435 22.5 20.25C22.5 19.0565 22.0259 17.9119 21.182 17.068C20.3381 16.2241 19.1935 15.75 18 15.75C16.8065 15.75 15.6619 16.2241 14.818 17.068C13.9741 17.9119 13.5 19.0565 13.5 20.25C13.5 21.4435 13.9741 22.5881 14.818 23.432C15.6619 24.2759 16.8065 24.75 18 24.75Z" fill="white"/>
<path d="M0 11.25C0 10.6533 0.237053 10.081 0.65901 9.65901C1.08097 9.23705 1.65326 9 2.25 9H33.75C34.3467 9 34.919 9.23705 35.341 9.65901C35.7629 10.081 36 10.6533 36 11.25V29.25C36 29.8467 35.7629 30.419 35.341 30.841C34.919 31.2629 34.3467 31.5 33.75 31.5H2.25C1.65326 31.5 1.08097 31.2629 0.65901 30.841C0.237053 30.419 0 29.8467 0 29.25V11.25ZM6.75 11.25C6.75 12.4435 6.27589 13.5881 5.43198 14.432C4.58807 15.2759 3.44347 15.75 2.25 15.75V24.75C3.44347 24.75 4.58807 25.2241 5.43198 26.068C6.27589 26.9119 6.75 28.0565 6.75 29.25H29.25C29.25 28.0565 29.7241 26.9119 30.568 26.068C31.4119 25.2241 32.5565 24.75 33.75 24.75V15.75C32.5565 15.75 31.4119 15.2759 30.568 14.432C29.7241 13.5881 29.25 12.4435 29.25 11.25H6.75Z" fill="white"/>
</svg>
