<svg width="38" height="34" viewBox="0 0 38 34" fill="none" xmlns="http://www.w3.org/2000/svg">
<g filter="url(#filter0_d_25_123)">
<path d="M34 15C34 15 28.375 4.6875 19 4.6875C9.625 4.6875 4 15 4 15C4 15 9.625 25.3125 19 25.3125C28.375 25.3125 34 15 34 15ZM6.19937 15C7.10596 13.6221 8.1487 12.3388 9.31187 11.1694C11.725 8.7525 15.025 6.5625 19 6.5625C22.975 6.5625 26.2731 8.7525 28.69 11.1694C29.8532 12.3388 30.8959 13.6221 31.8025 15C31.6938 15.1631 31.5738 15.3431 31.4369 15.54C30.8088 16.44 29.8806 17.64 28.69 18.8306C26.2731 21.2475 22.9731 23.4375 19 23.4375C15.025 23.4375 11.7269 21.2475 9.31 18.8306C8.14684 17.6612 7.10598 16.3779 6.19937 15Z" fill="white"/>
<path d="M19 10.3125C17.7568 10.3125 16.5645 10.8064 15.6854 11.6854C14.8064 12.5645 14.3125 13.7568 14.3125 15C14.3125 16.2432 14.8064 17.4355 15.6854 18.3146C16.5645 19.1936 17.7568 19.6875 19 19.6875C20.2432 19.6875 21.4355 19.1936 22.3146 18.3146C23.1936 17.4355 23.6875 16.2432 23.6875 15C23.6875 13.7568 23.1936 12.5645 22.3146 11.6854C21.4355 10.8064 20.2432 10.3125 19 10.3125ZM12.4375 15C12.4375 13.2595 13.1289 11.5903 14.3596 10.3596C15.5903 9.1289 17.2595 8.4375 19 8.4375C20.7405 8.4375 22.4097 9.1289 23.6404 10.3596C24.8711 11.5903 25.5625 13.2595 25.5625 15C25.5625 16.7405 24.8711 18.4097 23.6404 19.6404C22.4097 20.8711 20.7405 21.5625 19 21.5625C17.2595 21.5625 15.5903 20.8711 14.3596 19.6404C13.1289 18.4097 12.4375 16.7405 12.4375 15Z" fill="white"/>
</g>
<defs>
<filter id="filter0_d_25_123" x="0" y="0" width="38" height="38" filterUnits="userSpaceOnUse" color-interpolation-filters="sRGB">
<feFlood flood-opacity="0" result="BackgroundImageFix"/>
<feColorMatrix in="SourceAlpha" type="matrix" values="0 0 0 0 0 0 0 0 0 0 0 0 0 0 0 0 0 0 127 0" result="hardAlpha"/>
<feOffset dy="4"/>
<feGaussianBlur stdDeviation="2"/>
<feComposite in2="hardAlpha" operator="out"/>
<feColorMatrix type="matrix" values="0 0 0 0 0 0 0 0 0 0 0 0 0 0 0 0 0 0 0.25 0"/>
<feBlend mode="normal" in2="BackgroundImageFix" result="effect1_dropShadow_25_123"/>
<feBlend mode="normal" in="SourceGraphic" in2="effect1_dropShadow_25_123" result="shape"/>
</filter>
</defs>
</svg>
