<svg width="20" height="21" viewBox="0 0 20 21" fill="none" xmlns="http://www.w3.org/2000/svg">
<path d="M9.99997 7.87938C10.884 7.87938 11.7319 8.24812 12.357 8.9045C12.9821 9.56088 13.3333 10.4511 13.3333 11.3794C13.3333 12.3076 12.9821 13.1979 12.357 13.8542C11.7319 14.5106 10.884 14.8794 9.99997 14.8794C9.11592 14.8794 8.26807 14.5106 7.64295 13.8542C7.01783 13.1979 6.66664 12.3076 6.66664 11.3794C6.66664 10.4511 7.01783 9.56088 7.64295 8.9045C8.26807 8.24812 9.11592 7.87938 9.99997 7.87938ZM9.99997 9.19187C9.44744 9.19187 8.91753 9.42234 8.52683 9.83258C8.13613 10.2428 7.91664 10.7992 7.91664 11.3794C7.91664 11.9595 8.13613 12.5159 8.52683 12.9262C8.91753 13.3364 9.44744 13.5669 9.99997 13.5669C10.5525 13.5669 11.0824 13.3364 11.4731 12.9262C11.8638 12.5159 12.0833 11.9595 12.0833 11.3794C12.0833 10.7992 11.8638 10.2428 11.4731 9.83258C11.0824 9.42234 10.5525 9.19187 9.99997 9.19187ZM9.99997 4.8125C13.8441 4.8125 17.1633 7.56875 18.0841 11.431C18.1245 11.5998 18.0993 11.7786 18.0141 11.9279C17.9289 12.0772 17.7908 12.1849 17.63 12.2272C17.4692 12.2696 17.299 12.2432 17.1567 12.1537C17.0145 12.0643 16.912 11.9192 16.8716 11.7504C16.4858 10.1434 15.6001 8.71768 14.355 7.69924C13.1099 6.6808 11.5766 6.12796 9.99826 6.12836C8.41993 6.12876 6.8869 6.68239 5.64225 7.70146C4.39759 8.72053 3.51256 10.1467 3.12747 11.7539C3.10761 11.8375 3.07225 11.9163 3.02341 11.9856C2.97457 12.0549 2.91321 12.1134 2.84283 12.1578C2.77245 12.2022 2.69444 12.2316 2.61323 12.2443C2.53202 12.2571 2.44922 12.2529 2.36956 12.2321C2.28989 12.2112 2.21491 12.1741 2.14891 12.1228C2.0829 12.0715 2.02717 12.0071 1.98488 11.9332C1.94259 11.8593 1.91458 11.7774 1.90244 11.6921C1.8903 11.6068 1.89428 11.5199 1.91414 11.4362C2.36567 9.54366 3.40668 7.86381 4.87173 6.66368C6.33677 5.46354 8.14181 4.81197 9.99997 4.8125Z" fill="#8B0000"/>
</svg>
