<svg width="36" height="36" viewBox="0 0 36 36" fill="none" xmlns="http://www.w3.org/2000/svg">
<path d="M2.25 5.625C2.25 4.72989 2.60558 3.87145 3.23851 3.23851C3.87145 2.60558 4.72989 2.25 5.625 2.25H12.375C13.2701 2.25 14.1286 2.60558 14.7615 3.23851C15.3944 3.87145 15.75 4.72989 15.75 5.625V12.375C15.75 13.2701 15.3944 14.1286 14.7615 14.7615C14.1286 15.3944 13.2701 15.75 12.375 15.75H5.625C4.72989 15.75 3.87145 15.3944 3.23851 14.7615C2.60558 14.1286 2.25 13.2701 2.25 12.375V5.625ZM20.25 5.625C20.25 4.72989 20.6056 3.87145 21.2385 3.23851C21.8714 2.60558 22.7299 2.25 23.625 2.25H30.375C31.2701 2.25 32.1286 2.60558 32.7615 3.23851C33.3944 3.87145 33.75 4.72989 33.75 5.625V12.375C33.75 13.2701 33.3944 14.1286 32.7615 14.7615C32.1286 15.3944 31.2701 15.75 30.375 15.75H23.625C22.7299 15.75 21.8714 15.3944 21.2385 14.7615C20.6056 14.1286 20.25 13.2701 20.25 12.375V5.625ZM2.25 23.625C2.25 22.7299 2.60558 21.8714 3.23851 21.2385C3.87145 20.6056 4.72989 20.25 5.625 20.25H12.375C13.2701 20.25 14.1286 20.6056 14.7615 21.2385C15.3944 21.8714 15.75 22.7299 15.75 23.625V30.375C15.75 31.2701 15.3944 32.1286 14.7615 32.7615C14.1286 33.3944 13.2701 33.75 12.375 33.75H5.625C4.72989 33.75 3.87145 33.3944 3.23851 32.7615C2.60558 32.1286 2.25 31.2701 2.25 30.375V23.625ZM20.25 23.625C20.25 22.7299 20.6056 21.8714 21.2385 21.2385C21.8714 20.6056 22.7299 20.25 23.625 20.25H30.375C31.2701 20.25 32.1286 20.6056 32.7615 21.2385C33.3944 21.8714 33.75 22.7299 33.75 23.625V30.375C33.75 31.2701 33.3944 32.1286 32.7615 32.7615C32.1286 33.3944 31.2701 33.75 30.375 33.75H23.625C22.7299 33.75 21.8714 33.3944 21.2385 32.7615C20.6056 32.1286 20.25 31.2701 20.25 30.375V23.625Z" fill="white"/>
</svg>
