<svg width="35" height="35" viewBox="0 0 35 35" fill="none" xmlns="http://www.w3.org/2000/svg">
<path d="M17.7333 15.8519C17.5875 15.8373 17.4125 15.8373 17.252 15.8519C13.7812 15.7353 11.0249 12.8915 11.0249 9.3915C11.0249 5.81859 13.9124 2.9165 17.5 2.9165C21.0729 2.9165 23.975 5.81859 23.975 9.3915C23.9604 12.8915 21.2041 15.7353 17.7333 15.8519Z" stroke="white" stroke-width="1.5" stroke-linecap="round" stroke-linejoin="round"/>
<path d="M10.4418 21.2335C6.91263 23.596 6.91263 27.446 10.4418 29.7939C14.4522 32.4772 21.0293 32.4772 25.0398 29.7939C28.5689 27.4314 28.5689 23.5814 25.0398 21.2335C21.0439 18.5647 14.4668 18.5647 10.4418 21.2335Z" stroke="white" stroke-width="1.5" stroke-linecap="round" stroke-linejoin="round"/>
</svg>
