<svg width="35" height="35" viewBox="0 0 35 35" fill="none" xmlns="http://www.w3.org/2000/svg">
<path d="M26.9793 29.5312H21.146C20.5481 29.5312 20.0522 29.0354 20.0522 28.4375C20.0522 27.8396 20.5481 27.3438 21.146 27.3438H26.9793C27.5772 27.3438 28.0731 27.8396 28.0731 28.4375C28.0731 29.0354 27.5772 29.5312 26.9793 29.5312Z" fill="white"/>
<path d="M24.0625 32.4481C23.4646 32.4481 22.9688 31.9522 22.9688 31.3543V25.521C22.9688 24.9231 23.4646 24.4272 24.0625 24.4272C24.6604 24.4272 25.1562 24.9231 25.1562 25.521V31.3543C25.1562 31.9522 24.6604 32.4481 24.0625 32.4481Z" fill="white"/>
<path d="M17.7344 16.9457C17.6907 16.9457 17.6615 16.9457 17.6178 16.9457C17.5449 16.9311 17.4428 16.9311 17.3553 16.9457C13.1261 16.8144 9.93233 13.4894 9.93233 9.3915C9.91774 7.379 10.7052 5.48317 12.1344 4.054C13.5636 2.62484 15.4594 1.82275 17.4865 1.82275C21.6574 1.82275 25.0553 5.22067 25.0553 9.3915C25.0553 13.4894 21.8615 16.7998 17.7782 16.9457C17.7636 16.9457 17.749 16.9457 17.7344 16.9457ZM17.4865 4.01025C16.0428 4.01025 14.7011 4.579 13.6802 5.58525C12.674 6.60609 12.1198 7.94775 12.1198 9.37692C12.1198 12.2936 14.3948 14.6561 17.2969 14.7436C17.3844 14.729 17.574 14.729 17.7636 14.7436C20.6365 14.6123 22.8678 12.2644 22.8678 9.37692C22.8678 6.43109 20.4469 4.01025 17.4865 4.01025Z" fill="white"/>
<path d="M17.4859 32.8999C14.5108 32.8999 11.6962 32.127 9.56706 30.6978C7.53997 29.3415 6.43164 27.4895 6.43164 25.4915C6.43164 23.4936 7.55456 21.6561 9.56706 20.3145C13.9275 17.3978 21.015 17.3978 25.3755 20.3145C25.8713 20.6499 26.0171 21.3353 25.6817 21.8311C25.3463 22.3415 24.6609 22.4728 24.165 22.1374C20.5338 19.7165 14.4087 19.7165 10.7775 22.1374C9.37747 23.0707 8.61914 24.252 8.61914 25.4915C8.61914 26.7311 9.37747 27.9415 10.7775 28.8749C12.5421 30.0561 14.9192 30.6978 17.4713 30.6978C18.0692 30.6978 18.565 31.1936 18.565 31.7915C18.565 32.3895 18.0838 32.8999 17.4859 32.8999Z" fill="white"/>
</svg>
