<svg width="15" height="13" viewBox="0 0 15 13" fill="none" xmlns="http://www.w3.org/2000/svg">
<path d="M6.59013 0.995437C6.94586 0.215281 8.05414 0.215281 8.40987 0.995437L9.55097 3.49795C9.70066 3.82624 10.0156 4.04843 10.3751 4.07938L13.1447 4.31784C14.037 4.39467 14.3861 5.51576 13.6951 6.08564L11.6929 7.7369C11.3978 7.98028 11.2674 8.37068 11.357 8.74256L11.96 11.2463C12.1644 12.0946 11.2601 12.7794 10.4989 12.3528L7.9889 10.946C7.68519 10.7758 7.31481 10.7758 7.01109 10.946L4.50107 12.3528C3.73987 12.7794 2.83563 12.0946 3.03997 11.2463L3.64304 8.74256C3.73262 8.37068 3.6022 7.98028 3.3071 7.7369L1.30487 6.08564C0.613878 5.51576 0.962972 4.39467 1.85535 4.31784L4.62494 4.07938C4.98442 4.04843 5.29934 3.82624 5.44903 3.49795L6.59013 0.995437Z" fill="#F7C604"/>
</svg>
