<svg width="14" height="13" viewBox="0 0 14 13" fill="none" xmlns="http://www.w3.org/2000/svg">
<path d="M6.08105 1.1413C6.42759 0.333799 7.57241 0.333797 7.91895 1.1413L8.9235 3.48207C9.06821 3.81925 9.38596 4.05011 9.75136 4.08354L12.288 4.31559C13.1631 4.39564 13.5168 5.48442 12.8559 6.06354L10.9401 7.74226C10.6642 7.98408 10.5428 8.35761 10.6239 8.71546L11.1871 11.1996C11.3814 12.0566 10.4552 12.7295 9.70021 12.2799L7.51164 10.9767C7.19638 10.7889 6.80362 10.7889 6.48836 10.9767L4.29979 12.2799C3.54479 12.7295 2.61862 12.0566 2.8129 11.1996L3.37606 8.71546C3.45719 8.35761 3.33582 7.98408 3.05985 7.74226L1.14407 6.06354C0.483182 5.48442 0.836947 4.39564 1.71202 4.31559L4.24865 4.08354C4.61404 4.05011 4.93179 3.81925 5.0765 3.48207L6.08105 1.1413Z" fill="#F7C604"/>
</svg>
