<svg width="30" height="28" viewBox="0 0 30 28" fill="none" xmlns="http://www.w3.org/2000/svg">
<g clip-path="url(#clip0_31_9)">
<path d="M23 25.2L23.314 24.3133L22.878 24.1789L22.484 24.4011L23 25.2ZM27 21.4667L26.158 20.9627L25.9 21.3397L26.052 21.7616L27 21.4667ZM29 27.048L28.686 27.9365C28.8623 27.991 29.0514 27.9985 29.2321 27.9583C29.4128 27.9181 29.5779 27.8317 29.7089 27.7088C29.8399 27.586 29.9317 27.4315 29.9739 27.2627C30.0162 27.0938 30.0072 26.9174 29.948 26.7531L29 27.048ZM22.484 24.4011C20.572 25.4744 17.514 26.1165 15 26.1165V27.9832C17.77 27.9832 21.212 27.2925 23.516 25.9989L22.484 24.4011ZM15 26.1147C7.82 26.1147 2 20.6864 2 13.9888H0C0.00212099 17.7005 1.58341 21.2596 4.39623 23.8835C7.20904 26.5074 11.0231 27.9813 15 27.9813V26.1147ZM2 13.9888C2.00265 10.7725 3.37346 7.69056 5.81115 5.41714C8.24883 3.14371 11.5539 1.86667 15 1.86667V0C11.0235 -8.24758e-07 7.20969 1.47371 4.39693 4.0972C1.58417 6.7207 0.00265101 10.2774 0 13.9888H2ZM15 1.86667C22.18 1.86667 28 7.29493 28 13.9907H30C29.9974 10.2793 28.4158 6.7207 25.6031 4.0972C22.7903 1.47371 18.9765 -8.24758e-07 15 0V1.86667ZM28 13.9907C28 16.4752 27.408 19.1389 26.158 20.9627L27.842 21.9707C29.372 19.74 30 16.6824 30 13.9907H28ZM22.686 26.0867L28.686 27.9365L29.314 26.1632L23.314 24.3152L22.686 26.0867ZM29.948 26.7531L27.948 21.1717L26.052 21.7616L28.052 27.3448L29.948 26.7531Z" fill="#696969"/>
</g>
<defs>
<clipPath id="clip0_31_9">
<rect width="30" height="28" fill="white"/>
</clipPath>
</defs>
</svg>
