<svg width="16" height="14" viewBox="0 0 16 14" fill="none" xmlns="http://www.w3.org/2000/svg">
<g clip-path="url(#clip0_16_123)">
<path d="M12.2667 12.6L12.4341 12.1567L12.2016 12.0895L11.9915 12.2005L12.2667 12.6ZM14.4 10.7333L13.9509 10.4813L13.8133 10.6699L13.8944 10.8808L14.4 10.7333ZM15.4667 13.524L15.2992 13.9683C15.3932 13.9955 15.4941 13.9993 15.5905 13.9792C15.6868 13.959 15.7749 13.9159 15.8447 13.8544C15.9146 13.793 15.9636 13.7157 15.9861 13.6313C16.0086 13.5469 16.0038 13.4587 15.9723 13.3765L15.4667 13.524ZM11.9915 12.2005C10.9717 12.7372 9.3408 13.0583 8 13.0583V13.9916C9.47733 13.9916 11.3131 13.6463 12.5419 12.9995L11.9915 12.2005ZM8 13.0573C4.17067 13.0573 1.06667 10.3432 1.06667 6.9944H0C0.0011312 8.85027 0.844485 10.6298 2.34465 11.9417C3.84482 13.2537 5.87901 13.9907 8 13.9907V13.0573ZM1.06667 6.9944C1.06808 5.38623 1.79918 3.84528 3.09928 2.70857C4.39938 1.57186 6.16209 0.933333 8 0.933333V0C5.87919 -4.12379e-07 3.84517 0.736857 2.34503 2.0486C0.844893 3.36035 0.00141387 5.13869 0 6.9944H1.06667ZM8 0.933333C11.8293 0.933333 14.9333 3.64747 14.9333 6.99533H16C15.9986 5.13963 15.1551 3.36035 13.655 2.0486C12.1548 0.736857 10.1208 -4.12379e-07 8 0V0.933333ZM14.9333 6.99533C14.9333 8.2376 14.6176 9.56947 13.9509 10.4813L14.8491 10.9853C15.6651 9.87 16 8.3412 16 6.99533H14.9333ZM12.0992 13.0433L15.2992 13.9683L15.6341 13.0816L12.4341 12.1576L12.0992 13.0433ZM15.9723 13.3765L14.9056 10.5859L13.8944 10.8808L14.9611 13.6724L15.9723 13.3765Z" fill="#8B0000"/>
</g>
<defs>
<clipPath id="clip0_16_123">
<rect width="16" height="14" fill="white"/>
</clipPath>
</defs>
</svg>
