<svg width="35" height="17" viewBox="0 0 35 17" fill="none" xmlns="http://www.w3.org/2000/svg">
<path d="M17.4245 5.00241C19.3252 5.00241 21.1481 5.60389 22.4921 6.67451C23.8361 7.74513 24.5911 9.19721 24.5911 10.7113C24.5911 12.2254 23.8361 13.6775 22.4921 14.7481C21.1481 15.8187 19.3252 16.4202 17.4245 16.4202C15.5237 16.4202 13.7009 15.8187 12.3569 14.7481C11.0129 13.6775 10.2578 12.2254 10.2578 10.7113C10.2578 9.19721 11.0129 7.74513 12.3569 6.67451C13.7009 5.60389 15.5237 5.00241 17.4245 5.00241ZM17.4245 7.14325C16.2365 7.14325 15.0972 7.51917 14.2572 8.18831C13.4172 8.85745 12.9453 9.765 12.9453 10.7113C12.9453 11.6576 13.4172 12.5652 14.2572 13.2343C15.0972 13.9034 16.2365 14.2794 17.4245 14.2794C18.6124 14.2794 19.7517 13.9034 20.5917 13.2343C21.4317 12.5652 21.9036 11.6576 21.9036 10.7113C21.9036 9.765 21.4317 8.85745 20.5917 8.18831C19.7517 7.51917 18.6124 7.14325 17.4245 7.14325ZM17.4245 5.34982e-07C25.6894 5.34982e-07 32.8256 4.49575 34.8054 10.7955C34.8921 11.0709 34.838 11.3624 34.6549 11.606C34.4717 11.8496 34.1747 12.0252 33.829 12.0943C33.4833 12.1634 33.1173 12.1202 32.8115 11.9743C32.5058 11.8285 32.2853 11.5918 32.1986 11.3164C31.369 8.69531 29.4648 6.36978 26.7878 4.70859C24.1107 3.04741 20.8142 2.14565 17.4208 2.14631C14.0274 2.14697 10.7314 3.05 8.05536 4.71221C5.37935 6.37443 3.47653 8.7007 2.64859 11.3222C2.60589 11.4586 2.52986 11.587 2.42486 11.7001C2.31986 11.8131 2.18793 11.9086 2.03662 11.981C1.8853 12.0534 1.71756 12.1014 1.54297 12.1222C1.36838 12.143 1.19036 12.1361 1.01907 12.1021C0.847784 12.0681 0.686585 12.0076 0.544678 11.9239C0.402771 11.8403 0.282936 11.7352 0.192014 11.6146C0.101092 11.4941 0.0408637 11.3605 0.0147684 11.2214C-0.0113269 11.0823 -0.00277869 10.9405 0.0399255 10.8041C1.01072 7.71704 3.24889 4.97703 6.39874 3.01948C9.54859 1.06192 13.4294 -0.000870501 17.4245 5.34982e-07Z" fill="#696969"/>
</svg>
