<svg width="35" height="21" viewBox="0 0 35 21" fill="none" xmlns="http://www.w3.org/2000/svg">
<path d="M17.4245 6.75875C19.3252 6.75875 21.1481 7.49625 22.4921 8.809C23.8361 10.1218 24.5911 11.9022 24.5911 13.7588C24.5911 15.6153 23.8361 17.3957 22.4921 18.7085C21.1481 20.0213 19.3252 20.7587 17.4245 20.7587C15.5237 20.7587 13.7009 20.0213 12.3569 18.7085C11.0129 17.3957 10.2578 15.6153 10.2578 13.7588C10.2578 11.9022 11.0129 10.1218 12.3569 8.809C13.7009 7.49625 15.5237 6.75875 17.4245 6.75875ZM17.4245 9.38375C16.2365 9.38375 15.0972 9.84469 14.2572 10.6652C13.4172 11.4856 12.9453 12.5984 12.9453 13.7588C12.9453 14.9191 13.4172 16.0319 14.2572 16.8523C15.0972 17.6728 16.2365 18.1338 17.4245 18.1338C18.6124 18.1338 19.7517 17.6728 20.5917 16.8523C21.4317 16.0319 21.9036 14.9191 21.9036 13.7588C21.9036 12.5984 21.4317 11.4856 20.5917 10.6652C19.7517 9.84469 18.6124 9.38375 17.4245 9.38375ZM17.4245 0.625001C25.6894 0.625001 32.8256 6.1375 34.8054 13.862C34.8921 14.1997 34.838 14.5571 34.6549 14.8558C34.4717 15.1544 34.1747 15.3698 33.829 15.4545C33.4833 15.5392 33.1173 15.4863 32.8115 15.3074C32.5058 15.1286 32.2853 14.8384 32.1986 14.5008C31.369 11.2868 29.4648 8.43535 26.7878 6.39848C24.1107 4.36161 20.8142 3.25591 17.4208 3.25671C14.0274 3.25752 10.7314 4.36478 8.05536 6.40292C5.37935 8.44106 3.47653 11.2934 2.64859 14.5078C2.60589 14.6751 2.52986 14.8325 2.42486 14.9711C2.31986 15.1097 2.18793 15.2268 2.03662 15.3156C1.8853 15.4044 1.71756 15.4632 1.54297 15.4887C1.36838 15.5142 1.19036 15.5058 1.01907 15.4641C0.847784 15.4224 0.686585 15.3482 0.544678 15.2456C0.402771 15.143 0.282936 15.0142 0.192014 14.8664C0.101092 14.7186 0.0408637 14.5547 0.0147684 14.3842C-0.0113269 14.2137 -0.00277869 14.0398 0.0399255 13.8725C1.01072 10.0873 3.24889 6.72763 6.39874 4.32735C9.54859 1.92708 13.4294 0.623933 17.4245 0.625001Z" fill="#696969"/>
</svg>
