<svg width="15" height="20" viewBox="0 0 15 20" fill="none" xmlns="http://www.w3.org/2000/svg">
<path d="M11.5 17.3948L11.657 16.8022L11.439 16.7124L11.242 16.8608L11.5 17.3948ZM13.5 14.8995L13.079 14.5627L12.95 14.8147L13.026 15.0967L13.5 14.8995ZM14.5 18.63L14.343 19.2239C14.4312 19.2603 14.5257 19.2654 14.6161 19.2385C14.7064 19.2116 14.7889 19.1539 14.8544 19.0717C14.92 18.9896 14.9658 18.8863 14.987 18.7735C15.0081 18.6607 15.0036 18.5427 14.974 18.4329L14.5 18.63ZM11.242 16.8608C10.286 17.5783 8.757 18.0075 7.5 18.0075V19.2551C8.885 19.2551 10.606 18.7935 11.758 17.9289L11.242 16.8608ZM7.5 18.0062C3.91 18.0062 1 14.378 1 9.90138H0C0.0010605 12.3823 0.791705 14.7611 2.19811 16.5149C3.60452 18.2687 5.51157 19.2539 7.5 19.2539V18.0062ZM1 9.90138C1.00133 7.75161 1.68673 5.69169 2.90557 4.17216C4.12442 2.65262 5.77696 1.79905 7.5 1.79906V0.551392C5.51174 0.551391 3.60485 1.53641 2.19847 3.28993C0.792087 5.04345 0.00132551 7.42071 0 9.90138H1ZM7.5 1.79906C11.09 1.79906 14 5.42726 14 9.90263H15C14.9987 7.42195 14.2079 5.04345 12.8015 3.28993C11.3952 1.53641 9.48826 0.551391 7.5 0.551392V1.79906ZM14 9.90263C14 11.5633 13.704 13.3437 13.079 14.5627L13.921 15.2364C14.686 13.7454 15 11.7018 15 9.90263H14ZM11.343 17.9875L14.343 19.2239L14.657 18.0386L11.657 16.8035L11.343 17.9875ZM14.974 18.4329L13.974 14.7024L13.026 15.0967L14.026 18.8284L14.974 18.4329Z" fill="black" fill-opacity="0.5"/>
</svg>
