<svg width="15" height="15" viewBox="0 0 15 15" fill="none" xmlns="http://www.w3.org/2000/svg">
<path d="M11.5 13.5L11.657 13.025L11.439 12.953L11.242 13.072L11.5 13.5ZM13.5 11.5L13.079 11.23L12.95 11.432L13.026 11.658L13.5 11.5ZM14.5 14.49L14.343 14.966C14.4312 14.9952 14.5257 14.9992 14.6161 14.9777C14.7064 14.9561 14.7889 14.9098 14.8544 14.844C14.92 14.7782 14.9658 14.6954 14.987 14.605C15.0081 14.5146 15.0036 14.42 14.974 14.332L14.5 14.49ZM11.242 13.072C10.286 13.647 8.757 13.991 7.5 13.991V14.991C8.885 14.991 10.606 14.621 11.758 13.928L11.242 13.072ZM7.5 13.99C3.91 13.99 1 11.082 1 7.494H0C0.0010605 9.48243 0.791705 11.3891 2.19811 12.7947C3.60452 14.2004 5.51157 14.99 7.5 14.99V13.99ZM1 7.494C1.00133 5.77096 1.68673 4.11994 2.90557 2.90204C4.12442 1.68413 5.77696 0.999999 7.5 1V0C5.51174 -4.41835e-07 3.60485 0.789489 2.19847 2.19493C0.792087 3.60037 0.00132551 5.50574 0 7.494H1ZM7.5 1C11.09 1 14 3.908 14 7.495H15C14.9987 5.50674 14.2079 3.60037 12.8015 2.19493C11.3952 0.789489 9.48826 -4.41835e-07 7.5 0V1ZM14 7.495C14 8.826 13.704 10.253 13.079 11.23L13.921 11.77C14.686 10.575 15 8.937 15 7.495H14ZM11.343 13.975L14.343 14.966L14.657 14.016L11.657 13.026L11.343 13.975ZM14.974 14.332L13.974 11.342L13.026 11.658L14.026 14.649L14.974 14.332Z" fill="black" fill-opacity="0.5"/>
</svg>
