<svg width="15" height="6" viewBox="0 0 15 6" fill="none" xmlns="http://www.w3.org/2000/svg">
<path d="M7.10208 1.82456C7.8768 1.82456 8.61979 2.04393 9.1676 2.43443C9.71541 2.82492 10.0232 3.35455 10.0232 3.90679C10.0232 4.45903 9.71541 4.98865 9.1676 5.37915C8.61979 5.76964 7.8768 5.98902 7.10208 5.98902C6.32736 5.98902 5.58438 5.76964 5.03657 5.37915C4.48876 4.98865 4.181 4.45903 4.181 3.90679C4.181 3.35455 4.48876 2.82492 5.03657 2.43443C5.58438 2.04393 6.32736 1.82456 7.10208 1.82456ZM7.10208 2.60539C6.61788 2.60539 6.15352 2.7425 5.81114 2.98656C5.46875 3.23062 5.27641 3.56164 5.27641 3.90679C5.27641 4.25194 5.46875 4.58295 5.81114 4.82701C6.15352 5.07107 6.61788 5.20818 7.10208 5.20818C7.58628 5.20818 8.05065 5.07107 8.39303 4.82701C8.73541 4.58295 8.92776 4.25194 8.92776 3.90679C8.92776 3.56164 8.73541 3.23062 8.39303 2.98656C8.05065 2.7425 7.58628 2.60539 7.10208 2.60539ZM7.10208 1.95127e-07C10.4708 1.95127e-07 13.3795 1.63976 14.1864 3.9375C14.2218 4.03794 14.1997 4.14427 14.1251 4.23311C14.0504 4.32195 13.9293 4.38601 13.7884 4.41121C13.6475 4.4364 13.4984 4.42067 13.3737 4.36746C13.2491 4.31426 13.1592 4.22794 13.1239 4.1275C12.7858 3.17148 12.0096 2.32328 10.9185 1.71739C9.82736 1.1115 8.4837 0.782595 7.10058 0.782834C5.71745 0.783073 4.37402 1.11244 3.2833 1.71871C2.19258 2.32498 1.41701 3.17345 1.07955 4.12959C1.06214 4.17935 1.03115 4.22619 0.988356 4.26742C0.945557 4.30865 0.891786 4.34347 0.830111 4.36988C0.768436 4.3963 0.700066 4.4138 0.628904 4.42138C0.557742 4.42896 0.485181 4.42648 0.415366 4.41407C0.34555 4.40166 0.279847 4.37958 0.222007 4.34907C0.164167 4.31856 0.115323 4.28023 0.0782634 4.23627C0.0412043 4.1923 0.0166558 4.14357 0.0060195 4.09284C-0.00461676 4.04211 -0.00113257 3.99039 0.0162734 3.94062C0.411964 2.81468 1.32422 1.8153 2.60808 1.10131C3.89193 0.387319 5.47373 -0.000317502 7.10208 1.95127e-07Z" fill="black" fill-opacity="0.5"/>
</svg>
