<svg width="20" height="16" viewBox="0 0 20 16" fill="none" xmlns="http://www.w3.org/2000/svg">
<path d="M9.72528 5.17213C10.7861 5.17213 11.8036 5.69793 12.5537 6.63386C13.3039 7.56979 13.7253 8.83918 13.7253 10.1628C13.7253 11.4864 13.3039 12.7558 12.5537 13.6917C11.8036 14.6276 10.7861 15.1534 9.72528 15.1534C8.66442 15.1534 7.647 14.6276 6.89686 13.6917C6.14671 12.7558 5.72528 11.4864 5.72528 10.1628C5.72528 8.83918 6.14671 7.56979 6.89686 6.63386C7.647 5.69793 8.66442 5.17213 9.72528 5.17213ZM9.72528 7.04363C9.06224 7.04363 8.42636 7.37225 7.95752 7.95721C7.48868 8.54216 7.22528 9.33554 7.22528 10.1628C7.22528 10.99 7.48868 11.7834 7.95752 12.3684C8.42636 12.9533 9.06224 13.2819 9.72528 13.2819C10.3883 13.2819 11.0242 12.9533 11.4931 12.3684C11.9619 11.7834 12.2253 10.99 12.2253 10.1628C12.2253 9.33554 11.9619 8.54216 11.4931 7.95721C11.0242 7.37225 10.3883 7.04363 9.72528 7.04363ZM9.72528 0.799073C14.3383 0.799073 18.3213 4.72921 19.4263 10.2364C19.4747 10.4771 19.4445 10.732 19.3423 10.9449C19.24 11.1578 19.0742 11.3114 18.8813 11.3718C18.6883 11.4322 18.4841 11.3944 18.3134 11.2669C18.1428 11.1394 18.0197 10.9325 17.9713 10.6918C17.5083 8.40042 16.4455 6.36747 14.9513 4.91528C13.4572 3.46309 11.6172 2.67478 9.72322 2.67535C7.82923 2.67593 5.9896 3.46535 4.49601 4.91844C3.00243 6.37154 1.94039 8.40514 1.47828 10.6968C1.45445 10.8161 1.41202 10.9283 1.35341 11.0271C1.29481 11.126 1.22117 11.2094 1.13672 11.2727C1.05226 11.336 0.95864 11.378 0.861193 11.3962C0.763747 11.4143 0.664386 11.4084 0.568784 11.3786C0.473182 11.3489 0.38321 11.296 0.304006 11.2228C0.224803 11.1497 0.157918 11.0578 0.107171 10.9525C0.0564234 10.8471 0.0228077 10.7303 0.00824284 10.6087C-0.00632199 10.4871 -0.0015509 10.3632 0.022284 10.2439C0.564125 7.54523 1.81333 5.14994 3.57139 3.43867C5.32945 1.72739 7.49548 0.798311 9.72528 0.799073Z" fill="black" fill-opacity="0.5"/>
</svg>
