<svg width="14" height="10" viewBox="0 0 14 10" fill="none" xmlns="http://www.w3.org/2000/svg">
<path d="M10.172 8.20093L10.3109 7.91238L10.118 7.86865L9.94378 7.94093L10.172 8.20093ZM11.941 6.98598L11.5686 6.82196L11.4545 6.94467L11.5218 7.08196L11.941 6.98598ZM12.8256 8.80234L12.6867 9.0915C12.7647 9.10922 12.8483 9.11167 12.9282 9.09858C13.0081 9.08549 13.0811 9.05738 13.1391 9.0174C13.197 8.97741 13.2376 8.92713 13.2563 8.87219C13.275 8.81726 13.271 8.75983 13.2448 8.70636L12.8256 8.80234ZM9.94378 7.94093C9.09818 8.29023 7.74575 8.49921 6.63391 8.49921V9.10668C7.85897 9.10668 9.38123 8.88192 10.4002 8.46093L9.94378 7.94093ZM6.63391 8.4986C3.45848 8.4986 0.884521 6.73206 0.884521 4.55243H0C0.000938031 5.76035 0.70028 6.91859 1.94428 7.77249C3.18827 8.6264 4.8751 9.10608 6.63391 9.10608V8.4986ZM0.884521 4.55243C0.885693 3.50572 1.49195 2.50277 2.57004 1.76292C3.64813 1.02307 5.10984 0.607476 6.63391 0.607477V0C4.87525 -2.68404e-07 3.18856 0.479596 1.94459 1.33337C0.700617 2.18714 0.00117244 3.34461 0 4.55243H0.884521ZM6.63391 0.607477C9.80934 0.607477 12.3833 2.37402 12.3833 4.55304H13.2678C13.2666 3.34522 12.5672 2.18714 11.3232 1.33337C10.0793 0.479596 8.39256 -2.68404e-07 6.63391 0V0.607477ZM12.3833 4.55304C12.3833 5.36159 12.1215 6.22846 11.5686 6.82196L12.3134 7.15C12.9901 6.42407 13.2678 5.42902 13.2678 4.55304H12.3833ZM10.0331 8.48949L12.6867 9.0915L12.9644 8.51439L10.3109 7.91299L10.0331 8.48949ZM13.2448 8.70636L12.3603 6.89L11.5218 7.08196L12.4063 8.89893L13.2448 8.70636Z" fill="black" fill-opacity="0.5"/>
</svg>
