<svg width="19" height="18" viewBox="0 0 19 18" fill="none" xmlns="http://www.w3.org/2000/svg">
<path d="M14.5666 16.2094L14.7655 15.6391L14.4893 15.5526L14.2398 15.6955L14.5666 16.2094ZM17.0999 13.808L16.5667 13.4838L16.4033 13.7264L16.4995 13.9977L17.0999 13.808ZM18.3666 17.3981L18.1677 17.9696C18.2794 18.0046 18.3992 18.0095 18.5136 17.9836C18.628 17.9578 18.7326 17.9022 18.8156 17.8232C18.8985 17.7441 18.9567 17.6447 18.9834 17.5362C19.0102 17.4276 19.0045 17.3141 18.967 17.2084L18.3666 17.3981ZM14.2398 15.6955C13.0289 16.3859 11.0922 16.7989 9.49996 16.7989V17.9996C11.2543 17.9996 13.4342 17.5554 14.8934 16.7233L14.2398 15.6955ZM9.49996 16.7977C4.95265 16.7977 1.26666 13.3061 1.26666 8.99801H0C0.00134329 11.3855 1.00282 13.6748 2.78427 15.3626C4.56571 17.0503 6.98129 17.9984 9.49996 17.9984V16.7977ZM1.26666 8.99801C1.26834 6.92917 2.13652 4.9468 3.68038 3.48446C5.22424 2.02213 7.31745 1.2007 9.49996 1.2007V0C6.98151 -5.30509e-07 4.56612 0.947937 2.78471 2.63544C1.00331 4.32295 0.00167897 6.61072 0 8.99801H1.26666ZM9.49996 1.2007C14.0473 1.2007 17.7333 4.69232 17.7333 8.99921H18.9999C18.9982 6.61192 17.9966 4.32295 16.2152 2.63544C14.4338 0.947937 12.0184 -5.30509e-07 9.49996 0V1.2007ZM17.7333 8.99921C17.7333 10.5973 17.3583 12.3107 16.5667 13.4838L17.6332 14.1322C18.6022 12.6974 18.9999 10.7306 18.9999 8.99921H17.7333ZM14.3677 16.7797L18.1677 17.9696L18.5655 16.829L14.7655 15.6403L14.3677 16.7797ZM18.967 17.2084L17.7003 13.6183L16.4995 13.9977L17.7662 17.589L18.967 17.2084Z" fill="#8B0000"/>
</svg>
